<?xml version="1.0" encoding="UTF-8"?>

<svg xmlns="http://www.w3.org/2000/svg" version="1.1"
    xmlns:freecad="http://www.freecadweb.org/wiki/index.php?title=Svg_Namespace"
	width="297mm"
	height="210mm"
	viewBox="0 0 297 210">
	<!-- Working space 0 0 297 210 -->
	<defs>
		<radialGradient
			id="radialGradient3661"
			gradientUnits="userSpaceOnUse"
			cy="29.149"
			cx="282.65"
			gradientTransform="matrix(.14777 .23089 -.24680 .15795 -26.318 -62.617)"
			r="19.571">
				<stop stop-color="#71b2f8" offset="0"/>
				<stop stop-color="#002795" offset="1"/>
		</radialGradient>
		<radialGradient
			id="radialGradient3817"
			gradientUnits="userSpaceOnUse"
			cy="33.9"
			cx="270.58"
			gradientTransform="matrix(.26631 .065024 -.17931 .73438 -60.668 -36.938)"
			r="19.571">
				<stop stop-color="#ff6d0f" offset="0"/>
				<stop stop-color="#ff1000" offset="1"/>
		</radialGradient>
	</defs>
	<!-- Set display:none to hide FreeCAD Logo -->
	<g
		style="display:inline"
		id="freecad-logo"
		transform="translate(271, 185) scale(1)"
		fill-rule="evenodd"
		stroke-width=".45621">
		<path d="m0.22811 0.22835v13.256h2.9558v-5.1876h2.09v-2.0452h-2.09v-2.2075h5.1486v-3.8087l-8.1044-0.0075z"
			stroke="#370700"
			fill="url(#radialGradient3817)"/>
		<path d="m13.386 4.1792-1.7193 0.98645-0.75925-0.26348-0.72439-1.8513-1.1395 0.05988-0.51976 1.9144-0.72743 0.34835-1.8143-0.79367-0.76632 0.85156 0.98645 1.7193-0.26957 0.75702-1.8513 0.72439 0.065967 1.1417 1.9144 0.51976 0.34835 0.72743-0.79976 1.8121 0.85156 0.76632 1.7193-0.98645 0.76311 0.27179 0.7183 1.8491 1.1478-0.06375 0.51367-1.9166 0.72743-0.34835 1.8182 0.80198 0.76632-0.85156-0.98645-1.7193 0.2657-0.76533 1.8491-0.7183-0.05766-1.1456-1.9166-0.51367-0.34835-0.72743 0.7959-1.8204-0.85156-0.76632zm-2.5751 2.8195 0.35295 0.20478 0.30579 0.27725 0.24481 0.33087 0.17611 0.36787 0.10354 0.39656 0.01715 0.4064-0.0587 0.4063-0.13396 0.38571-0.2131 0.35681-0.26894 0.30192-0.33087 0.24481-0.36787 0.17611-0.39656 0.10354-0.40863 0.02325-0.4063-0.0587-0.38571-0.13396-0.35681-0.2131-0.2997-0.27503-0.24703-0.32478-0.17611-0.36787-0.10132-0.40264-0.02324-0.40863 0.05869-0.4063 0.13396-0.38571 0.21087-0.35072 0.27116-0.30801 0.33087-0.24481 0.36787-0.17611 0.40264-0.10132 0.40641-0.01715 0.4063 0.05869 0.38571 0.13396z" 
		stroke="#000137"
		fill="url(#radialGradient3661)"/>
	</g>
<g id="Ortho_0_0"
   transform="rotate(0,78.5,134.87) translate(78.5,134.87) scale(1,1)"
  >
<g   fill="none"
   stroke="rgb(0, 0, 0)"
   stroke-linecap="butt"
   stroke-linejoin="miter"
   stroke-width="0.350000"
   transform="scale(1,-1)"
  >
<path d="M-185.04,21.4115 Q-184.663,22.168 -184.27,22.9166 " /><path d="M-178.152,32.8391 Q-177.819,33.3069 -177.48,33.7706 " /></g>
<g   fill="none"
   stroke="rgb(0, 0, 0)"
   stroke-linecap="butt"
   stroke-linejoin="miter"
   stroke-width="0.350000"
   transform="scale(1,-1)"
  >
<path d="M-196.85,0 Q-196.85,1.4756 -196.776,2.95048 " /><path d="M-196.85,0 L-196.678,0 " /><path d="M-196.776,2.95048 Q-196.631,5.80248 -196.213,8.63073 " /><path d="M-196.213,8.63073 C-195.759,11.7039 -195.064,14.7431 -194.152,17.7163 " /><path d="M-194.152,17.7163 Q-193.074,21.2202 -191.619,24.5868 " /><path d="M-191.619,24.5868 C-189.014,30.6279 -185.558,36.2844 -181.554,41.4947 " /><path d="M196.392,7.31916 Q196.849,3.67395 196.85,-3.55271e-15 " /><path d="M-181.554,41.4947 Q-179.183,44.5764 -176.575,47.4587 " /><path d="M195.021,14.6004 Q195.929,11.0019 196.392,7.31916 " /><path d="M-176.575,47.4587 Q-173.864,50.4542 -170.942,53.2409 " /><path d="M192.442,22.5943 C193.47,19.9886 194.338,17.3181 195.021,14.6004 " /><path d="M-170.942,53.2409 C-170.442,53.7186 -169.938,54.1919 -169.429,54.6607  C-164.936,58.8035 -160.134,62.5995 -155.131,66.0934  C-150.126,69.5871 -144.919,72.7792 -139.575,75.7105 " /><path d="M188.857,30.2849 C190.199,27.7943 191.403,25.2273 192.442,22.5943 " /><path d="M-139.575,75.7105 Q-135.383,78.0074 -131.087,80.0972 " /><path d="M184.676,37.1715 C186.181,34.9468 187.582,32.6502 188.857,30.2849 " /><path d="M-131.087,80.0972 C-125.736,82.702 -120.276,85.0749 -114.737,87.2421  C-105.929,90.6872 -96.923,93.6143 -87.7941,96.0962  C-73.5482,99.9651 -59.003,102.756 -44.3205,104.609  C-29.6379,106.458 -14.8145,107.364 -0.00683819,107.366 " /><path d="M180.799,42.4645 Q182.835,39.8894 184.676,37.1715 " /><path d="M-0.00683819,107.366 C-0.00455467,107.366 -0.00227114,107.366 1.23837e-05,107.366  C9.9186,107.365 19.8265,106.958 29.6957,106.137  C39.5646,105.315 49.3953,104.08 59.1505,102.404  C68.9049,100.727 78.5848,98.6108 88.134,96.0036  C97.6818,93.3952 107.101,90.297 116.298,86.6252 " /><path d="M177.847,46.0241 Q179.365,44.2795 180.799,42.4645 " /><path d="M116.298,86.6252 C122.754,84.0463 129.1,81.1839 135.28,77.9953 " /><path d="M170.09,54.0468 C172.806,51.5039 175.403,48.8325 177.847,46.0241 " /><path d="M135.28,77.9953 Q139.682,75.7267 143.958,73.2286 " /><path d="M162.431,60.6525 C165.068,58.5515 167.628,56.3519 170.09,54.0468 " /><path d="M143.958,73.2286 Q148.708,70.4551 153.266,67.3752 " /><path d="M153.266,67.3752 C156.404,65.2514 159.466,63.0142 162.431,60.6525 " /><path d="M-176.512,47.1969 C-173,51.0944 -169.195,54.7226 -165.186,58.1059  C-158.887,63.4195 -152.094,68.1314 -145.017,72.3459  C-141.766,74.2779 -138.46,76.1091 -135.098,77.8395 " /><path d="M-0.00685042,107.144 C19.4912,107.138 38.9967,105.58 58.2257,102.336  C67.7592,100.724 77.2225,98.6936 86.564,96.1975  C95.9044,93.7005 105.123,90.7392 114.137,87.238  C121.306,84.4517 128.346,81.3232 135.183,77.796 " /><path id= "28" d=" M -196.678 -1.08383e-15 L -196.628 -1.39785e-15 " />
<path d="M-153.318 -44.2187 A44.2283 44.2283 0 0 0 -196.628 -5.51291e-16" /><path d="M-196.85 5.44356e-15 A44.45 44.45 0 0 1 -153.323 -44.4404" /><path d="M-196.678,1.77636e-15 C-196.399,5.74992 -195.329,11.3746 -193.585,16.7364  C-191.843,22.1012 -189.438,27.2033 -186.544,31.9953  C-184.112,36.0227 -181.337,39.8336 -178.307,43.433  C-175.277,47.0328 -171.991,50.4209 -168.516,53.6125  C-160.75,60.7384 -152.064,66.8869 -142.894,72.2346  C-133.716,77.5811 -124.041,82.1273 -114.106,86.0066  C-105.284,89.4491 -96.2526,92.3651 -87.1156,94.8253  C-72.8534,98.6618 -58.3465,101.396 -43.7969,103.209  C-29.2399,105.016 -14.6447,105.911 -3.39029e-05,105.908  C10.5925,105.901 21.2183,105.417 31.8136,104.461  C42.4089,103.504 52.9753,102.076 63.4484,100.137  C73.9207,98.1962 84.3019,95.7445 94.5039,92.7018  C104.704,89.6576 114.728,86.0228 124.429,81.6777  C134.185,77.3044 143.623,72.2126 152.459,66.2337  C156.928,63.2075 161.239,59.9534 165.329,56.4453  C169.418,52.9374 173.285,49.1759 176.838,45.1382  C182.248,38.9891 186.936,32.1826 190.404,24.7542  C192.137,21.0429 193.561,17.1805 194.614,13.2042  C195.667,9.22869 196.346,5.13973 196.62,0.999538 " /><path d="M196.62,0.999538 Q196.653,0.500225 196.678,0 " /><path d="M196.678,3.51346e-09 C196.678,0.00209911 196.677,0.0253521 196.676,0.0373071  C196.675,0.0628166 196.673,0.0883261 196.672,0.113836  C196.665,0.245043 196.658,0.37625 196.65,0.507457  C196.64,0.669852 196.63,0.832246 196.62,0.99464 " /><path d="M196.228,1.77636e-15 C196.472,0.270024 196.627,0.627598 196.62,0.994876 " /><path d="M196.228,9.78452e-16 C195.792,-2.41215e-15 195.049,-1.92288e-15 194.249,-6.97561e-16  C193.451,5.64605e-16 192.612,-5.65249e-16 192.016,3.55e-15 " /><path d="M-192.016,-1.77636e-15 C-191.272,5.82673 -189.883,11.0685 -188.061,15.9425  C-186.235,20.8138 -183.969,25.3258 -181.333,29.6121  C-179.116,33.2106 -176.635,36.6446 -173.903,39.939  C-171.169,43.2324 -168.195,46.3839 -164.981,49.3936  C-157.815,56.1142 -149.487,62.1213 -140.36,67.3593  C-131.235,72.601 -121.323,77.0682 -111.087,80.8185  C-102,84.1504 -92.6673,86.923 -83.3762,89.2463  C-76.1247,91.0594 -68.8997,92.6013 -61.7821,93.928  C-54.6618,95.2538 -47.651,96.3665 -40.7578,97.2952  C-33.8613,98.2217 -27.0838,98.9671 -20.3391,99.4998  C-13.5906,100.029 -6.87559,100.349 -0.000342677,100.323  C4.9727,100.303 10.0326,100.096 15.1387,99.7543  C20.2453,99.4117 25.3985,98.9333 30.5704,98.3498  C40.9161,97.1778 51.3326,95.603 61.6823,93.6709  C72.0326,91.7322 82.3236,89.4283 92.4334,86.6184  C102.541,83.8058 112.473,80.4783 122.037,76.4193  C131.654,72.3374 140.906,67.5045 149.447,61.7498  C153.767,58.839 157.902,55.6945 161.786,52.311  C165.671,48.9282 169.303,45.3071 172.609,41.461  C177.75,35.4833 182.086,28.9638 185.36,22.0313  C187.001,18.5641 188.376,14.9962 189.484,11.3275  C190.593,7.65838 191.432,3.88962 192.016,3.55271e-15 " /><path d="M-196.228,-2.27148e-15 C-195.792,-1.15556e-15 -195.049,7.43913e-16 -194.249,7.51352e-16  C-193.451,9.39401e-16 -192.612,-2.03589e-15 -192.016,-1.78e-15 " /><path d="M-196.228,1.77636e-15 C-196.461,0.264171 -196.615,0.605121 -196.62,0.960391 " /><path d="M-196.62,0.960393 C-196.637,0.709819 -196.652,0.463732 -196.665,0.222134  C-196.67,0.14852 -196.674,0.071706 -196.678,0.00575428  C-196.678,0.00383619 -196.678,0.00191809 -196.678,2.00014e-15 " /><path d="M196.85,1.315e-14 C196.808,1.34058e-14 196.775,1.36093e-14 196.734,1.38614e-14  C196.694,1.41011e-14 196.646,1.44023e-14 196.628,1.451e-14 " /><path id= "41" d=" M 196.628 1.46748e-14 L 196.628 1.46747e-14 " />
<path d="M153.323 -44.4404 A44.45 44.45 0 0 1 196.85 -1.08871e-14" /><path id= "43" d=" M 153.323 -44.4404 L -2.84217e-14 -47.625 " />
<path id= "44" d=" M -153.323 -44.4404 L 0 -47.625 " />
<path d="M-196.62,0.960391 Q-196.628,0.480223 -196.628,3.55271e-15 " /><path id= "46" d=" M 0.00460478 -47.4033 L 153.328 -44.2187 " />
<path id= "47" d=" M -153.318 -44.2187 L 0.00460478 -47.4033 " />
<path id= "48" d=" M -196.228 1.03502e-16 L -192.016 -7.38761e-16 " />
<path d="M-190.5,1.77636e-15 C-189.69,3.32451 -188.683,6.60053 -187.493,9.80863  C-187.182,10.6488 -186.858,11.4844 -186.523,12.3155  C-186.16,13.2145 -185.785,14.109 -185.4,14.9988  C-185.262,15.3196 -185.184,15.5043 -185.15,15.5869  C-185.116,15.6725 -185.125,15.656 -185.126,15.6552  C-185.127,15.6564 -185.128,15.6557 -185.13,15.6531  C-185.13,15.6523 -185.134,15.6458 -185.141,15.6336  C-185.15,15.6185 -185.163,15.595 -185.208,15.5047  C-185.291,15.3368 -185.422,15.062 -185.566,14.7523  C-185.912,14.0041 -186.247,13.2508 -186.569,12.4922  C-187.389,10.5658 -188.142,8.61351 -188.828,6.63545  C-189.162,5.6705 -189.483,4.7012 -189.791,3.72754  C-190.063,2.87074 -190.325,2.01055 -190.594,1.15366  C-190.714,0.766553 -190.84,0.381999 -190.971,1.77636e-15 " /><path d="M-190.5,1.77636e-15 L-190.442,0.235485 " /><path d="M-168.978,40.4052 C-168.977,40.4064 -168.977,40.4076 -168.976,40.4088  C-168.975,40.4099 -168.972,40.4144 -168.966,40.4224  C-168.959,40.4317 -168.947,40.446 -168.91,40.4903  C-168.462,41.0191 -167.995,41.5315 -167.53,42.0454  C-166.48,43.1956 -165.402,44.32 -164.297,45.4186  C-163.382,46.3298 -162.449,47.2235 -161.5,48.0998  C-157.811,51.5064 -153.878,54.6467 -149.768,57.5304  C-147.625,59.0325 -145.438,60.467 -143.206,61.8338  C-140.771,63.3255 -138.291,64.7404 -135.768,66.0785  C-135.33,66.3107 -134.913,66.5293 -134.491,66.7481  C-134.069,66.9664 -133.642,67.185 -133.209,67.4039  C-132.776,67.6224 -132.336,67.8412 -131.915,68.0482  C-131.494,68.2547 -131.091,68.4496 -130.756,68.6079  C-130.711,68.6293 -130.642,68.6601 -130.583,68.6871  C-130.521,68.7152 -130.474,68.7369 -130.441,68.7523  C-130.412,68.7666 -130.398,68.7736 -130.4,68.7733  C-130.4,68.7738 -130.411,68.7686 -130.402,68.7689  C-130.401,68.7689 -130.401,68.7688 -130.401,68.7688 " /><path d="M8.28129,96.4397 Q6.83448,96.5221 5.39918,96.5804 " /><path d="M5.23455,96.587 L5.22399,96.5874 " /><path d="M5.06749,96.5935 L5.05976,96.5938 " /><path d="M4.61939,96.6101 L4.60884,96.6105 " /><path d="M4.53594,96.6131 L4.50014,96.6143 " /><path d="M4.48322,96.6149 L4.26342,96.6224 " /><path d="M3.57771,96.6439 Q2.77402,96.6673 1.97465,96.682 " /><path d="M1.49514,96.6899 Q0.637236,96.7028 -0.215256,96.7048 " /><path d="M-0.215348,96.7048 L-0.301456,96.705 " /><path d="M-0.301716,96.705 L-0.387773,96.7051 " /><path d="M-0.388083,96.7051 L-0.474222,96.7052 " /><path d="M-0.47445,96.7052 L-0.560169,96.7052 " /><path d="M-0.560816,96.7052 L-0.591278,96.7052 " /><path d="M-0.90879,96.7046 L-0.937879,96.7045 " /><path d="M-1.28732,96.703 L-1.31675,96.7029 " /><path d="M-1.84718,96.6987 L-1.89269,96.6983 " /><path d="M-2.47015,96.6913 L-2.48517,96.6911 " /><path d="M-3.09503,96.6811 L-3.09672,96.6811 " /><path d="M-3.92603,96.6634 L-3.93031,96.6633 " /><path d="M-5.04144,96.6324 L-5.06695,96.6316 " /><path d="M-5.28281,96.6246 L-5.30098,96.624 " /><path d="M-5.65031,96.612 L-5.66726,96.6114 " /><path d="M-5.68096,96.6109 L-5.68267,96.6109 " /><path d="M-5.76434,96.608 L-5.77052,96.6077 " /><path d="M-6.0682,96.5967 L-6.09311,96.5957 " /><path d="M-7.44007,96.5388 L-7.45788,96.538 " /><path d="M-8.09622,96.5071 L-8.1003,96.5069 " /><path d="M-8.74994,96.4731 L-8.75231,96.473 " /><path d="M-8.80282,96.4703 L-9.24397,96.4458 " /><path d="M-9.24446,96.4458 L-9.29682,96.4428 " /><path d="M-9.29724,96.4428 L-9.34976,96.4398 " /><path d="M-9.35001,96.4398 L-9.39813,96.437 " /><path d="M-9.75785,96.416 L-9.91699,96.4064 " /><path d="M-10.0795,96.3966 L-10.1085,96.3948 " /><path d="M-10.7272,96.3558 L-11.0054,96.3377 " /><path d="M-104.298,79.0311 C-107.574,77.9895 -110.833,76.8767 -114.047,75.69  C-119.602,73.6388 -125.071,71.3504 -130.401,68.7688 " /><path d="M8.28129,96.4397 C7.24331,96.5058 6.20484,96.563 5.16589,96.6114  C3.72114,96.6801 2.09927,96.73 1.10617,96.753  C0.802043,96.7608 0.497919,96.7685 0.193796,96.7762  C0.0825687,96.7796 0.0191207,96.7826 0.00345152,96.7852  C-0.0150248,96.7878 -0.00250761,96.7856 -0.0063886,96.7869  C-0.0063383,96.7872 -0.006288,96.7874 -0.00623769,96.7877  C-0.00779622,96.7879 -0.00396402,96.7885 0.0052589,96.7896  C0.0106857,96.7897 0.0281388,96.7911 0.0769087,96.793  C0.1329,96.795 0.220208,96.7975 0.560325,96.7989  C1.72253,96.7995 2.88448,96.7823 4.04618,96.747  C6.29258,96.6792 8.53685,96.5682 10.779,96.4139  C17.6616,95.9434 24.5183,95.1525 31.3526,94.2228  C38.5454,93.2387 45.7155,92.0933 52.8659,90.8392  C62.8041,89.0884 72.7072,87.1339 82.5347,84.8348  C92.3587,82.5297 102.105,79.8694 111.637,76.5448  C116.641,74.798 121.583,72.8664 126.423,70.7033  C134.502,67.0939 142.304,62.8299 149.554,57.7475  C153.131,55.2406 156.571,52.5368 159.834,49.6325  C162.162,47.5609 164.409,45.3781 166.532,43.1147  C166.938,42.6823 167.331,42.2557 167.726,41.8192  C168.119,41.3851 168.515,40.9409 168.866,40.5359  C168.922,40.4717 168.964,40.422 168.973,40.4112  C168.982,40.3997 168.974,40.409 168.977,40.4061  C168.978,40.4046 168.973,40.4093 168.97,40.4128  C168.966,40.4168 168.956,40.4278 168.922,40.4656  C168.884,40.5076 168.823,40.5764 168.616,40.8078  C165.485,44.3117 162.113,47.599 158.544,50.6542  C154.292,54.2953 149.763,57.6097 145.038,60.6097  C140.323,63.6037 135.412,66.2852 130.373,68.6904 " /><path d="M185.328,14.3482 C182.983,19.7643 180.186,24.9877 176.92,29.9049  C172.324,36.8391 166.812,43.1529 160.645,48.7308  C157.725,51.3744 154.66,53.8568 151.479,56.1797  C144.864,61.0118 137.754,65.1469 130.373,68.6904 " /><path d="M185.328,14.3482 C182.934,19.8939 180.075,25.2428 176.728,30.2731  C175.618,31.943 174.458,33.5772 173.247,35.1756  C172.903,35.631 172.553,36.0809 172.205,36.533  C172.205,36.5331 172.205,36.5332 172.205,36.5333  C172.204,36.534 172.205,36.5335 172.206,36.5316  C172.207,36.5312 172.21,36.5275 172.216,36.5205  C172.223,36.5119 172.234,36.498 172.272,36.451  C172.652,35.9769 173.025,35.4987 173.394,35.0162  C176.758,30.6192 179.738,25.9288 182.305,21.0239  C184.352,17.1214 186.136,13.0846 187.712,8.97079  C188.233,7.60921 188.736,6.24101 189.221,4.86619  C189.553,3.92343 189.883,2.98054 190.213,2.03753  C190.455,1.35339 190.696,0.667803 190.971,5.32907e-15 " /><path id= "91" d=" M 196.228 -1.48593e-15 L 192.016 -1.02268e-15 " />
<path d="M196.628,1.95399e-14 Q196.628,0.49747 196.62,0.994876 " /><path d="M153.328,-44.2187 C159.063,-44.1014 164.772,-42.8517 170.031,-40.5622  C175.272,-38.2873 180.063,-34.983 184.052,-30.8922  C188.044,-26.8055 191.231,-21.9358 193.378,-16.6411  C195.521,-11.3726 196.631,-5.6875 196.628,-1.06581e-14 " /><path id= "94" d=" M -2.842e-14 -47.625 L 0.00460478 -47.4033 " />
<path d="M191.867,-3.55e-15 C191.619,2.83396e-15 191.302,-4.76822e-15 190.971,4.1832e-16 " /><path d="M192.016,3.55e-15 L191.867,-3.55e-15 " /><path d="M-192.016,-1.78e-15 L-191.867,0 " /><path d="M-191.867,0 C-191.619,4.28647e-15 -191.302,-9.7025e-16 -190.971,-4.15898e-16 " /><path d="M130.373,68.6904 C138.03,65.0159 145.326,60.731 152.012,55.7881  C158.698,50.8522 164.763,45.2541 169.952,39.151  C173.25,35.2781 176.192,31.2109 178.768,27.0083  C181.347,22.8022 183.559,18.4721 185.487,13.9792 " /><path d="M-130.437,68.7515 C-123.681,72.0275 -116.536,74.9021 -109.221,77.4063  C-99.9792,80.5728 -90.4779,83.1497 -81.1137,85.3117  C-73.8039,86.999 -66.5788,88.4388 -59.5434,89.7167  C-52.5041,90.9926 -45.6572,92.111 -38.9984,93.1031  C-32.3347,94.0909 -25.8606,94.9577 -19.4351,95.6184  C-13.0043,96.2722 -6.6223,96.726 -0.000508456,96.7041  C2.72224,96.6933 5.48727,96.5984 8.28231,96.4397 " /><path d="M-190.5,-1.77636e-15 C-189.769,2.98236 -188.931,5.72178 -188.022,8.28629  C-187.113,10.8505 -186.134,13.2409 -185.102,15.5179  C-183.032,20.0659 -180.755,24.1852 -178.219,28.1485  C-175.483,32.4143 -172.43,36.4861 -168.969,40.4144 " /></g>
</g>



</svg>

