<?xml version="1.0" encoding="UTF-8" standalone="no"?>
<svg
   xmlns:dc="http://purl.org/dc/elements/1.1/"
   xmlns:cc="http://creativecommons.org/ns#"
   xmlns:rdf="http://www.w3.org/1999/02/22-rdf-syntax-ns#"
   xmlns:svg="http://www.w3.org/2000/svg"
   xmlns="http://www.w3.org/2000/svg"
   xmlns:sodipodi="http://sodipodi.sourceforge.net/DTD/sodipodi-0.dtd"
   xmlns:inkscape="http://www.inkscape.org/namespaces/inkscape"
   version="1.1"
   width="11in"
   height="8.5in"
   viewBox="0 0 279.4 215.9"
   id="svg5301"
   sodipodi:docname="V5_Partial_with_Guidelines.svg"
   inkscape:version="0.92.1 r15371">
  <metadata
     id="metadata5305">
    <rdf:RDF>
      <cc:Work
         rdf:about="">
        <dc:format>image/svg+xml</dc:format>
        <dc:type
           rdf:resource="http://purl.org/dc/dcmitype/StillImage" />
        <dc:title></dc:title>
      </cc:Work>
    </rdf:RDF>
  </metadata>
  <sodipodi:namedview
     pagecolor="#ffffff"
     bordercolor="#666666"
     borderopacity="1"
     objecttolerance="10"
     gridtolerance="10"
     guidetolerance="10"
     inkscape:pageopacity="0"
     inkscape:pageshadow="2"
     inkscape:window-width="1854"
     inkscape:window-height="1057"
     id="namedview5303"
     showgrid="false"
     units="in"
     showguides="true"
     inkscape:guide-bbox="true"
     inkscape:zoom="1.0734524"
     inkscape:cx="561.25984"
     inkscape:cy="434.11334"
     inkscape:window-x="-8"
     inkscape:window-y="-8"
     inkscape:window-maximized="1"
     inkscape:current-layer="layer2">
    <sodipodi:guide
       position="126.69014,79.612676"
       orientation="0,1"
       id="guide5957"
       inkscape:locked="false" />
    <sodipodi:guide
       position="73.943662,193.97887"
       orientation="1,0"
       id="guide5959"
       inkscape:locked="false" />
  </sodipodi:namedview>
  <!-- Working space 0 0 297 210 -->
  <defs
     id="defs5092">
    <radialGradient
       id="radialGradient3661"
       gradientUnits="userSpaceOnUse"
       cy="29.149"
       cx="282.64999"
       gradientTransform="matrix(0.14777,0.23089,-0.2468,0.15795,-26.318,-62.617)"
       r="19.570999">
      <stop
         stop-color="#71b2f8"
         offset="0"
         id="stop5082" />
      <stop
         stop-color="#002795"
         offset="1"
         id="stop5084" />
    </radialGradient>
    <radialGradient
       id="radialGradient3817"
       gradientUnits="userSpaceOnUse"
       cy="33.900002"
       cx="270.57999"
       gradientTransform="matrix(0.26631,0.065024,-0.17931,0.73438,-60.668,-36.938)"
       r="19.570999">
      <stop
         stop-color="#ff6d0f"
         offset="0"
         id="stop5087" />
      <stop
         stop-color="#ff1000"
         offset="1"
         id="stop5089" />
    </radialGradient>
  </defs>
  <!-- Set display:none to hide FreeCAD Logo -->
  <g
     inkscape:groupmode="layer"
     id="layer1"
     inkscape:label="Base Drawing"
     style="display:inline"
     transform="translate(0,5.9)"
     sodipodi:insensitive="true">
    <g
       id="Ortho_0_0"
       transform="translate(74.063379,130.43338)">
      <g
         transform="scale(1,-1)"
         id="g5103"
         style="fill:none;stroke:#000000;stroke-width:0.34999999;stroke-linecap:butt;stroke-linejoin:miter">
        <path
           d="m -185.04,21.4115 q 0.377,0.7565 0.77,1.5051"
           id="path5099"
           inkscape:connector-curvature="0" />
        <path
           d="m -178.152,32.8391 q 0.333,0.4678 0.672,0.9315"
           id="path5101"
           inkscape:connector-curvature="0" />
      </g>
      <g
         transform="scale(1,-1)"
         id="g5298"
         style="fill:none;stroke:#000000;stroke-width:0.34999999;stroke-linecap:butt;stroke-linejoin:miter">
        <path
           d="m -196.85,0 q 0,1.4756 0.074,2.95048"
           id="path5105"
           inkscape:connector-curvature="0" />
        <path
           d="m -196.85,0 h 0.172"
           id="path5107"
           inkscape:connector-curvature="0" />
        <path
           d="m -196.776,2.95048 q 0.145,2.852 0.563,5.68025"
           id="path5109"
           inkscape:connector-curvature="0" />
        <path
           d="m -196.213,8.63073 c 0.454,3.07317 1.149,6.11237 2.061,9.08557"
           id="path5111"
           inkscape:connector-curvature="0" />
        <path
           d="m -194.152,17.7163 q 1.078,3.5039 2.533,6.8705"
           id="path5113"
           inkscape:connector-curvature="0" />
        <path
           d="m -191.619,24.5868 c 2.605,6.0411 6.061,11.6976 10.065,16.9079"
           id="path5115"
           inkscape:connector-curvature="0" />
        <path
           d="M 196.392,7.31916 Q 196.849,3.67395 196.85,0"
           id="path5117"
           inkscape:connector-curvature="0" />
        <path
           d="m -181.554,41.4947 q 2.371,3.0817 4.979,5.964"
           id="path5119"
           inkscape:connector-curvature="0" />
        <path
           d="m 195.021,14.6004 q 0.908,-3.5985 1.371,-7.28124"
           id="path5121"
           inkscape:connector-curvature="0" />
        <path
           d="m -176.575,47.4587 q 2.711,2.9955 5.633,5.7822"
           id="path5123"
           inkscape:connector-curvature="0" />
        <path
           d="m 192.442,22.5943 c 1.028,-2.6057 1.896,-5.2762 2.579,-7.9939"
           id="path5125"
           inkscape:connector-curvature="0" />
        <path
           d="m -170.942,53.2409 c 0.5,0.4777 1.004,0.951 1.513,1.4198 4.493,4.1428 9.295,7.9388 14.298,11.4327 5.005,3.4937 10.212,6.6858 15.556,9.6171"
           id="path5127"
           inkscape:connector-curvature="0" />
        <path
           d="m 188.857,30.2849 c 1.342,-2.4906 2.546,-5.0576 3.585,-7.6906"
           id="path5129"
           inkscape:connector-curvature="0" />
        <path
           d="m -139.575,75.7105 q 4.192,2.2969 8.488,4.3867"
           id="path5131"
           inkscape:connector-curvature="0" />
        <path
           d="m 184.676,37.1715 c 1.505,-2.2247 2.906,-4.5213 4.181,-6.8866"
           id="path5133"
           inkscape:connector-curvature="0" />
        <path
           d="m -131.087,80.0972 c 5.351,2.6048 10.811,4.9777 16.35,7.1449 8.808,3.4451 17.814,6.3722 26.9429,8.8541 14.2459,3.8689 28.7911,6.6598 43.4736,8.5128 14.6826,1.849 29.506,2.755 44.31366181,2.757"
           id="path5135"
           inkscape:connector-curvature="0" />
        <path
           d="m 180.799,42.4645 q 2.036,-2.5751 3.877,-5.293"
           id="path5137"
           inkscape:connector-curvature="0" />
        <path
           d="m -0.00683819,107.366 c 0.00228352,0 0.00456705,0 0.0068505737,0 C 9.9186,107.365 19.8265,106.958 29.6957,106.137 c 9.8689,-0.822 19.6996,-2.057 29.4548,-3.733 9.7544,-1.677 19.4343,-3.7932 28.9835,-6.4004 9.5478,-2.6084 18.967,-5.7066 28.164,-9.3784"
           id="path5139"
           inkscape:connector-curvature="0" />
        <path
           d="m 177.847,46.0241 q 1.518,-1.7446 2.952,-3.5596"
           id="path5141"
           inkscape:connector-curvature="0" />
        <path
           d="m 116.298,86.6252 c 6.456,-2.5789 12.802,-5.4413 18.982,-8.6299"
           id="path5143"
           inkscape:connector-curvature="0" />
        <path
           d="m 170.09,54.0468 c 2.716,-2.5429 5.313,-5.2143 7.757,-8.0227"
           id="path5145"
           inkscape:connector-curvature="0" />
        <path
           d="m 135.28,77.9953 q 4.402,-2.2686 8.678,-4.7667"
           id="path5147"
           inkscape:connector-curvature="0" />
        <path
           d="m 162.431,60.6525 c 2.637,-2.101 5.197,-4.3006 7.659,-6.6057"
           id="path5149"
           inkscape:connector-curvature="0" />
        <path
           d="m 143.958,73.2286 q 4.75,-2.7735 9.308,-5.8534"
           id="path5151"
           inkscape:connector-curvature="0" />
        <path
           d="m 153.266,67.3752 c 3.138,-2.1238 6.2,-4.361 9.165,-6.7227"
           id="path5153"
           inkscape:connector-curvature="0" />
        <path
           d="m -176.512,47.1969 c 3.512,3.8975 7.317,7.5257 11.326,10.909 6.299,5.3136 13.092,10.0255 20.169,14.24 3.251,1.932 6.557,3.7632 9.919,5.4936"
           id="path5155"
           inkscape:connector-curvature="0" />
        <path
           d="M -0.00685042,107.144 C 19.4912,107.138 38.9967,105.58 58.2257,102.336 c 9.5335,-1.612 18.9968,-3.6424 28.3383,-6.1385 9.3404,-2.497 18.559,-5.4583 27.573,-8.9595 7.169,-2.7863 14.209,-5.9148 21.046,-9.442"
           id="path5157"
           inkscape:connector-curvature="0" />
        <path
           id="28"
           d="m -196.678,0 h 0.05"
           inkscape:connector-curvature="0" />
        <path
           d="M -153.318,-44.2187 A 44.2283,44.2283 0 0 0 -196.628,0"
           id="path5160"
           inkscape:connector-curvature="0" />
        <path
           d="m -196.85,0 a 44.45,44.45 0 0 1 43.527,-44.4404"
           id="path5162"
           inkscape:connector-curvature="0" />
        <path
           d="m -196.678,0 c 0.279,5.74992 1.349,11.3746 3.093,16.7364 1.742,5.3648 4.147,10.4669 7.041,15.2589 2.432,4.0274 5.207,7.8383 8.237,11.4377 3.03,3.5998 6.316,6.9879 9.791,10.1795 7.766,7.1259 16.452,13.2744 25.622,18.6221 9.178,5.3465 18.853,9.8927 28.788,13.772 8.822,3.4425 17.8534,6.3585 26.9904,8.8187 14.2622,3.8365 28.7691,6.5707 43.3187,8.3837 14.557,1.807 29.1522,2.702 43.7968660971,2.699 C 10.5925,105.901 21.2183,105.417 31.8136,104.461 c 10.5953,-0.957 21.1617,-2.385 31.6348,-4.324 10.4723,-1.9408 20.8535,-4.3925 31.0555,-7.4352 10.2001,-3.0442 20.2241,-6.679 29.9251,-11.0241 9.756,-4.3733 19.194,-9.4651 28.03,-15.444 4.469,-3.0262 8.78,-6.2803 12.87,-9.7884 4.089,-3.5079 7.956,-7.2694 11.509,-11.3071 5.41,-6.1491 10.098,-12.9556 13.566,-20.384 1.733,-3.7113 3.157,-7.5737 4.21,-11.55 1.053,-3.97551 1.732,-8.06447 2.006,-12.204662"
           id="path5164"
           inkscape:connector-curvature="0" />
        <path
           d="M 196.62,0.999538 Q 196.653,0.500225 196.678,0"
           id="path5166"
           inkscape:connector-curvature="0" />
        <path
           d="m 196.678,0 c 0,0.00209911 -0.001,0.0253521 -0.002,0.0373071 -10e-4,0.0255095 -0.003,0.051019 -0.004,0.0765289 -0.007,0.131207 -0.014,0.262414 -0.022,0.393621 -0.01,0.162395 -0.02,0.324789 -0.03,0.487183"
           id="path5168"
           inkscape:connector-curvature="0" />
        <path
           d="m 196.228,0 c 0.244,0.270024 0.399,0.627598 0.392,0.994876"
           id="path5170"
           inkscape:connector-curvature="0" />
        <path
           d="m 196.228,0 c -0.436,0 -1.179,0 -1.979,0 -0.798,0 -1.637,0 -2.233,0"
           id="path5172"
           inkscape:connector-curvature="0" />
        <path
           d="m -192.016,0 c 0.744,5.82673 2.133,11.0685 3.955,15.9425 1.826,4.8713 4.092,9.3833 6.728,13.6696 2.217,3.5985 4.698,7.0325 7.43,10.3269 2.734,3.2934 5.708,6.4449 8.922,9.4546 7.166,6.7206 15.494,12.7277 24.621,17.9657 9.125,5.2417 19.037,9.7089 29.273,13.4592 9.087,3.3319 18.4197,6.1045 27.7108,8.4278 7.2515,1.8131 14.4765,3.355 21.5941,4.6817 7.1203,1.3258 14.1311,2.4385 21.0243,3.3672 6.8965,0.9265 13.674,1.6719 20.4187,2.2046 6.7485,0.5292 13.46351,0.8492 20.338757323,0.8232 C 4.9727,100.303 10.0326,100.096 15.1387,99.7543 c 5.1066,-0.3426 10.2598,-0.821 15.4317,-1.4045 10.3457,-1.172 20.7622,-2.7468 31.1119,-4.6789 10.3503,-1.9387 20.6413,-4.2426 30.7511,-7.0525 10.1076,-2.8126 20.0396,-6.1401 29.6036,-10.1991 9.617,-4.0819 18.869,-8.9148 27.41,-14.6695 4.32,-2.9108 8.455,-6.0553 12.339,-9.4388 3.885,-3.3828 7.517,-7.0039 10.823,-10.85 5.141,-5.9777 9.477,-12.4972 12.751,-19.4297 1.641,-3.4672 3.016,-7.0351 4.124,-10.7038 C 190.593,7.65838 191.432,3.88962 192.016,0"
           id="path5174"
           inkscape:connector-curvature="0" />
        <path
           d="m -196.228,0 c 0.436,0 1.179,0 1.979,0 0.798,0 1.637,0 2.233,0"
           id="path5176"
           inkscape:connector-curvature="0" />
        <path
           d="m -196.228,0 c -0.233,0.264171 -0.387,0.605121 -0.392,0.960391"
           id="path5178"
           inkscape:connector-curvature="0" />
        <path
           d="m -196.62,0.960393 c -0.017,-0.250574 -0.032,-0.496661 -0.045,-0.738259 -0.005,-0.073614 -0.009,-0.150428 -0.013,-0.21637972 0,-0.00191809 0,-0.00383619 0,-0.00575428"
           id="path5180"
           inkscape:connector-curvature="0" />
        <path
           d="m 196.85,0 c -0.042,0 -0.075,0 -0.116,0 -0.04,0 -0.088,0 -0.106,0"
           id="path5182"
           inkscape:connector-curvature="0" />
        <path
           id="41"
           d="M 196.628,0 V 0"
           inkscape:connector-curvature="0" />
        <path
           d="M 153.323,-44.4404 A 44.45,44.45 0 0 1 196.85,0"
           id="path5185"
           inkscape:connector-curvature="0" />
        <path
           id="43"
           d="M 153.323,-44.4404 0,-47.625"
           inkscape:connector-curvature="0" />
        <path
           id="44"
           d="M -153.323,-44.4404 0,-47.625"
           inkscape:connector-curvature="0" />
        <path
           d="M -196.62,0.960391 Q -196.628,0.480223 -196.628,0"
           id="path5189"
           inkscape:connector-curvature="0" />
        <path
           id="46"
           d="M 0.00460478,-47.4033 153.328,-44.2187"
           inkscape:connector-curvature="0" />
        <path
           id="47"
           d="M -153.318,-44.2187 0.00460478,-47.4033"
           inkscape:connector-curvature="0" />
        <path
           id="48"
           d="m -196.228,0 h 4.212"
           inkscape:connector-curvature="0" />
        <path
           d="m -190.5,0 c 0.81,3.32451 1.817,6.60053 3.007,9.80863 0.311,0.84017 0.635,1.67577 0.97,2.50687 0.363,0.899 0.738,1.7935 1.123,2.6833 0.138,0.3208 0.216,0.5055 0.25,0.5881 0.034,0.0856 0.025,0.0691 0.024,0.0683 -0.001,0.0012 -0.002,5e-4 -0.004,-0.0021 0,-8e-4 -0.004,-0.0073 -0.011,-0.0195 -0.009,-0.0151 -0.022,-0.0386 -0.067,-0.1289 -0.083,-0.1679 -0.214,-0.4427 -0.358,-0.7524 -0.346,-0.7482 -0.681,-1.5015 -1.003,-2.2601 -0.82,-1.9264 -1.573,-3.87869 -2.259,-5.85675 -0.334,-0.96495 -0.655,-1.93425 -0.963,-2.90791 -0.272,-0.8568 -0.534,-1.71699 -0.803,-2.57388 C -190.714,0.766553 -190.84,0.381999 -190.971,0"
           id="path5194"
           inkscape:connector-curvature="0" />
        <path
           d="m -190.5,0 0.058,0.235485"
           id="path5196"
           inkscape:connector-curvature="0" />
        <path
           d="m -168.978,40.4052 c 0.001,0.0012 0.001,0.0024 0.002,0.0036 0.001,0.0011 0.004,0.0056 0.01,0.0136 0.007,0.0093 0.019,0.0236 0.056,0.0679 0.448,0.5288 0.915,1.0412 1.38,1.5551 1.05,1.1502 2.128,2.2746 3.233,3.3732 0.915,0.9112 1.848,1.8049 2.797,2.6812 3.689,3.4066 7.622,6.5469 11.732,9.4306 2.143,1.5021 4.33,2.9366 6.562,4.3034 2.435,1.4917 4.915,2.9066 7.438,4.2447 0.438,0.2322 0.855,0.4508 1.277,0.6696 0.422,0.2183 0.849,0.4369 1.282,0.6558 0.433,0.2185 0.873,0.4373 1.294,0.6443 0.421,0.2065 0.824,0.4014 1.159,0.5597 0.045,0.0214 0.114,0.0522 0.173,0.0792 0.062,0.0281 0.109,0.0498 0.142,0.0652 0.029,0.0143 0.043,0.0213 0.041,0.021 0,5e-4 -0.011,-0.0047 -0.002,-0.0044 10e-4,0 10e-4,-1e-4 10e-4,-1e-4"
           id="path5198"
           inkscape:connector-curvature="0" />
        <path
           d="M 8.28129,96.4397 Q 6.83448,96.5221 5.39918,96.5804"
           id="path5200"
           inkscape:connector-curvature="0" />
        <path
           d="m 5.23455,96.587 -0.01056,4e-4"
           id="path5202"
           inkscape:connector-curvature="0" />
        <path
           d="m 5.06749,96.5935 -0.00773,3e-4"
           id="path5204"
           inkscape:connector-curvature="0" />
        <path
           d="m 4.61939,96.6101 -0.01055,4e-4"
           id="path5206"
           inkscape:connector-curvature="0" />
        <path
           d="m 4.53594,96.6131 -0.0358,0.0012"
           id="path5208"
           inkscape:connector-curvature="0" />
        <path
           d="m 4.48322,96.6149 -0.2198,0.0075"
           id="path5210"
           inkscape:connector-curvature="0" />
        <path
           d="M 3.57771,96.6439 Q 2.77402,96.6673 1.97465,96.682"
           id="path5212"
           inkscape:connector-curvature="0" />
        <path
           d="m 1.49514,96.6899 q -0.857904,0.0129 -1.710396,0.0149"
           id="path5214"
           inkscape:connector-curvature="0" />
        <path
           d="m -0.215348,96.7048 -0.086108,2e-4"
           id="path5216"
           inkscape:connector-curvature="0" />
        <path
           d="m -0.301716,96.705 -0.086057,1e-4"
           id="path5218"
           inkscape:connector-curvature="0" />
        <path
           d="m -0.388083,96.7051 -0.086139,1e-4"
           id="path5220"
           inkscape:connector-curvature="0" />
        <path
           d="M -0.47445,96.7052 H -0.560169"
           id="path5222"
           inkscape:connector-curvature="0" />
        <path
           d="M -0.560816,96.7052 H -0.591278"
           id="path5224"
           inkscape:connector-curvature="0" />
        <path
           d="m -0.90879,96.7046 -0.029089,-1e-4"
           id="path5226"
           inkscape:connector-curvature="0" />
        <path
           d="m -1.28732,96.703 -0.02943,-1e-4"
           id="path5228"
           inkscape:connector-curvature="0" />
        <path
           d="m -1.84718,96.6987 -0.04551,-4e-4"
           id="path5230"
           inkscape:connector-curvature="0" />
        <path
           d="m -2.47015,96.6913 -0.01502,-2e-4"
           id="path5232"
           inkscape:connector-curvature="0" />
        <path
           d="M -3.09503,96.6811 H -3.09672"
           id="path5234"
           inkscape:connector-curvature="0" />
        <path
           d="m -3.92603,96.6634 -0.00428,-10e-5"
           id="path5236"
           inkscape:connector-curvature="0" />
        <path
           d="m -5.04144,96.6324 -0.02551,-8e-4"
           id="path5238"
           inkscape:connector-curvature="0" />
        <path
           d="m -5.28281,96.6246 -0.01817,-6e-4"
           id="path5240"
           inkscape:connector-curvature="0" />
        <path
           d="m -5.65031,96.612 -0.01695,-6e-4"
           id="path5242"
           inkscape:connector-curvature="0" />
        <path
           d="M -5.68096,96.6109 H -5.68267"
           id="path5244"
           inkscape:connector-curvature="0" />
        <path
           d="m -5.76434,96.608 -0.00618,-3e-4"
           id="path5246"
           inkscape:connector-curvature="0" />
        <path
           d="m -6.0682,96.5967 -0.02491,-0.001"
           id="path5248"
           inkscape:connector-curvature="0" />
        <path
           d="m -7.44007,96.5388 -0.01781,-8e-4"
           id="path5250"
           inkscape:connector-curvature="0" />
        <path
           d="m -8.09622,96.5071 -0.00408,-2e-4"
           id="path5252"
           inkscape:connector-curvature="0" />
        <path
           d="m -8.74994,96.4731 -0.00237,-1e-4"
           id="path5254"
           inkscape:connector-curvature="0" />
        <path
           d="M -8.80282,96.4703 -9.24397,96.4458"
           id="path5256"
           inkscape:connector-curvature="0" />
        <path
           d="m -9.24446,96.4458 -0.05236,-0.003"
           id="path5258"
           inkscape:connector-curvature="0" />
        <path
           d="m -9.29724,96.4428 -0.05252,-0.003"
           id="path5260"
           inkscape:connector-curvature="0" />
        <path
           d="M -9.35001,96.4398 -9.39813,96.437"
           id="path5262"
           inkscape:connector-curvature="0" />
        <path
           d="M -9.75785,96.416 -9.91699,96.4064"
           id="path5264"
           inkscape:connector-curvature="0" />
        <path
           d="m -10.0795,96.3966 -0.029,-0.0018"
           id="path5266"
           inkscape:connector-curvature="0" />
        <path
           d="m -10.7272,96.3558 -0.2782,-0.0181"
           id="path5268"
           inkscape:connector-curvature="0" />
        <path
           d="m -104.298,79.0311 c -3.276,-1.0416 -6.535,-2.1544 -9.749,-3.3411 -5.555,-2.0512 -11.024,-4.3396 -16.354,-6.9212"
           id="path5270"
           inkscape:connector-curvature="0" />
        <path
           d="M 8.28129,96.4397 C 7.24331,96.5058 6.20484,96.563 5.16589,96.6114 3.72114,96.6801 2.09927,96.73 1.10617,96.753 c -0.304127,0.0078 -0.608251,0.0155 -0.912374,0.0232 -0.1112273,0.0034 -0.1746753,0.0064 -0.19034448,0.009 -0.01847632,0.0026 -0.00595913,4e-4 -0.00984012,0.0017 5.03e-5,3e-4 1.006e-4,5e-4 1.5091e-4,8e-4 -0.00155853,2e-4 0.00227367,8e-4 0.01149659,0.0019 0.0054268,1e-4 0.0228799,0.0015 0.0716498,0.0034 0.0559913,0.002 0.1432993,0.0045 0.4834163,0.0059 1.162205,6e-4 2.324155,-0.0166 3.485855,-0.0519 2.2464,-0.0678 4.49067,-0.1788 6.73282,-0.3331 6.8826,-0.4705 13.7393,-1.2614 20.5736,-2.1911 7.1928,-0.9841 14.3629,-2.1295 21.5133,-3.3836 9.9382,-1.7508 19.8413,-3.7053 29.6688,-6.0044 9.824,-2.3051 19.5703,-4.9654 29.1023,-8.29 5.004,-1.7468 9.946,-3.6784 14.786,-5.8415 8.079,-3.6094 15.881,-7.8734 23.131,-12.9558 3.577,-2.5069 7.017,-5.2107 10.28,-8.115 2.328,-2.0716 4.575,-4.2544 6.698,-6.5178 0.406,-0.4324 0.799,-0.859 1.194,-1.2955 0.393,-0.4341 0.789,-0.8783 1.14,-1.2833 0.056,-0.0642 0.098,-0.1139 0.107,-0.1247 0.009,-0.0115 10e-4,-0.0022 0.004,-0.0051 0.001,-0.0015 -0.004,0.0032 -0.007,0.0067 -0.004,0.004 -0.014,0.015 -0.048,0.0528 -0.038,0.042 -0.099,0.1108 -0.306,0.3422 -3.131,3.5039 -6.503,6.7912 -10.072,9.8464 -4.252,3.6411 -8.781,6.9555 -13.506,9.9555 -4.715,2.994 -9.626,5.6755 -14.665,8.0807"
           id="path5272"
           inkscape:connector-curvature="0" />
        <path
           d="m 185.328,14.3482 c -2.345,5.4161 -5.142,10.6395 -8.408,15.5567 -4.596,6.9342 -10.108,13.248 -16.275,18.8259 -2.92,2.6436 -5.985,5.126 -9.166,7.4489 -6.615,4.8321 -13.725,8.9672 -21.106,12.5107"
           id="path5274"
           inkscape:connector-curvature="0" />
        <path
           d="m 185.328,14.3482 c -2.394,5.5457 -5.253,10.8946 -8.6,15.9249 -1.11,1.6699 -2.27,3.3041 -3.481,4.9025 -0.344,0.4554 -0.694,0.9053 -1.042,1.3574 0,10e-5 0,2e-4 0,3e-4 -0.001,7e-4 0,2e-4 10e-4,-0.0017 0.001,-4e-4 0.004,-0.0041 0.01,-0.0111 0.007,-0.0086 0.018,-0.0225 0.056,-0.0695 0.38,-0.4741 0.753,-0.9523 1.122,-1.4348 3.364,-4.397 6.344,-9.0874 8.911,-13.9923 2.047,-3.9025 3.831,-7.9393 5.407,-12.05311 0.521,-1.36158 1.024,-2.72978 1.509,-4.1046 0.332,-0.94276 0.662,-1.88565 0.992,-2.82866 C 190.455,1.35339 190.696,0.667803 190.971,0"
           id="path5276"
           inkscape:connector-curvature="0" />
        <path
           id="91"
           d="m 196.228,0 h -4.212"
           inkscape:connector-curvature="0" />
        <path
           d="m 196.628,0 q 0,0.49747 -0.008,0.994876"
           id="path5279"
           inkscape:connector-curvature="0" />
        <path
           d="m 153.328,-44.2187 c 5.735,0.1173 11.444,1.367 16.703,3.6565 5.241,2.2749 10.032,5.5792 14.021,9.67 3.992,4.0867 7.179,8.9564 9.326,14.2511 2.143,5.2685 3.253,10.9536 3.25,16.6411"
           id="path5281"
           inkscape:connector-curvature="0" />
        <path
           id="94"
           d="m 0,-47.625 0.00460478,0.2217"
           inkscape:connector-curvature="0" />
        <path
           d="m 191.867,0 c -0.248,0 -0.565,0 -0.896,0"
           id="path5284"
           inkscape:connector-curvature="0" />
        <path
           d="m 192.016,0 h -0.149"
           id="path5286"
           inkscape:connector-curvature="0" />
        <path
           d="m -192.016,0 h 0.149"
           id="path5288"
           inkscape:connector-curvature="0" />
        <path
           d="m -191.867,0 c 0.248,0 0.565,0 0.896,0"
           id="path5290"
           inkscape:connector-curvature="0" />
        <path
           d="m 130.373,68.6904 c 7.657,-3.6745 14.953,-7.9594 21.639,-12.9023 6.686,-4.9359 12.751,-10.534 17.94,-16.6371 3.298,-3.8729 6.24,-7.9401 8.816,-12.1427 2.579,-4.2061 4.791,-8.5362 6.719,-13.0291"
           id="path5292"
           inkscape:connector-curvature="0" />
        <path
           d="m -130.437,68.7515 c 6.756,3.276 13.901,6.1506 21.216,8.6548 9.2418,3.1665 18.7431,5.7434 28.1073,7.9054 7.3098,1.6873 14.5349,3.1271 21.5703,4.405 7.0393,1.2759 13.8862,2.3943 20.545,3.3864 6.6637,0.9878 13.1378,1.8546 19.5633,2.5153 6.4308,0.6538 12.8128,1.1076 19.434591544,1.0857 C 2.72224,96.6933 5.48727,96.5984 8.28231,96.4397"
           id="path5294"
           inkscape:connector-curvature="0" />
        <path
           d="m -190.5,0 c 0.731,2.98236 1.569,5.72178 2.478,8.28629 0.909,2.56421 1.888,4.95461 2.92,7.23161 2.07,4.548 4.347,8.6673 6.883,12.6306 2.736,4.2658 5.789,8.3376 9.25,12.2659"
           id="path5296"
           inkscape:connector-curvature="0" />
      </g>
    </g>
  </g>
  <g
     inkscape:groupmode="layer"
     id="layer2"
     inkscape:label="Center Lines"
     sodipodi:insensitive="true">
    <path
       transform="translate(0,5.9000001)"
       style="display:inline;fill:none;stroke:#000000;stroke-width:0.26458332px;stroke-linecap:butt;stroke-linejoin:miter;stroke-opacity:1"
       d="M 73.943662,6.4084506 V 193.73239"
       id="path5961"
       inkscape:connector-curvature="0" />
    <path
       transform="translate(0,5.9000001)"
       style="display:inline;fill:none;stroke:#000000;stroke-width:0.26458332px;stroke-linecap:butt;stroke-linejoin:miter;stroke-opacity:1"
       d="M 276.05632,130.38732 H 4.6830985"
       id="path5963"
       inkscape:connector-curvature="0" />
  </g>
</svg>
